{"title":"The Fosters S05E05 1080P WEB-DL DD5 1 H 264","magnet":"magnet:?xt=urn:btih:81340c155df777831bbdbef5f4fb5f4b470d9e40&dn=The+Fosters+S05E05+1080P+WEB-DL+DD5+1+H+264&tr=udp%3A%2F%2Ftracker.leechers-paradise.org%3A6969&tr=udp%3A%2F%2Fzer0day.ch%3A1337&tr=udp%3A%2F%2Fopen.demonii.com%3A1337&tr=udp%3A%2F%2Ftracker.coppersurfer.tk%3A6969&tr=udp%3A%2F%2Fexodus.desync.com%3A6969","uploader":"jmanwf","categoryP":"video","categoryS":"hd___tv_shows","size":"1788574190","seeders":"4","leechers":"5","description":"The Fosters kids secretly attend a party at the Derby warehouse, but things escalate when the cops show up. Lena struggles with Stef&apos;s detachment from the family as she becomes obsessed with her detective work bringing down a child molester.\r\n\r\nFormat                                   : Matroska\r\nFormat version                           : Version 4 / Version 2\r\nFile size                                : 1.67 GiB\r\nDuration                                 : 41 min 55 s\r\nOverall bit rate                         : 5 688 kb/s\r\n\r\nAudio #1\r\nID                                       : 1\r\nFormat                                   : AAC\r\nFormat/Info                              : Advanced Audio Codec\r\nFormat profile                           : LC\r\nCodec ID                                 : A_AAC\r\nDuration                                 : 41 min 55 s\r\nBit rate                                 : 126 kb/s\r\nChannel(s)                               : 2 channels\r\nChannel positions                        : Front: L R\r\nSampling rate                            : 48.0 kHz\r\nFrame rate                               : 46.875 FPS (1024 spf)\r\nCompression mode                         : Lossy\r\nDelay relative to video                  : -42 ms\r\nStream size                              : 37.8 MiB (2%)\r\nLanguage                                 : English\r\nDefault                                  : Yes\r\nForced                                   : No\r\n\r\nAudio #2\r\nID                                       : 2\r\nFormat                                   : AC-3\r\nFormat/Info                              : Audio Coding 3\r\nFormat settings, Endianness              : Big\r\nCodec ID                                 : A_AC3\r\nDuration                                 : 41 min 55 s\r\nBit rate mode                            : Constant\r\nBit rate                                 : 384 kb/s\r\nChannel(s)                               : 6 channels\r\nChannel positions                        : Front: L C R, Side: L R, LFE\r\nSampling rate                            : 48.0 kHz\r\nFrame rate                               : 31.250 FPS (1536 spf)\r\nBit depth                                : 16 bits\r\nCompression mode                         : Lossy\r\nDelay relative to video                  : -42 ms\r\nStream size                              : 115 MiB (7%)\r\nLanguage                                 : English\r\nService kind                             : Complete Main\r\nDefault                                  : No\r\nForced                                   : No","last_updated":"2017-08-09T12:02:03.516Z","parsed":{"xt":"urn:btih:81340c155df777831bbdbef5f4fb5f4b470d9e40","dn":"The Fosters S05E05 1080P WEB-DL DD5 1 H 264","tr":["udp://exodus.desync.com:6969","udp://open.demonii.com:1337","udp://tracker.coppersurfer.tk:6969","udp://tracker.leechers-paradise.org:6969","udp://zer0day.ch:1337"],"infoHash":"81340c155df777831bbdbef5f4fb5f4b470d9e40","infoHashBuffer":{"type":"Buffer","data":[129,52,12,21,93,247,119,131,27,189,190,245,244,251,95,75,71,13,158,64]},"name":"The Fosters S05E05 1080P WEB-DL DD5 1 H 264","announce":["udp://exodus.desync.com:6969","udp://open.demonii.com:1337","udp://tracker.coppersurfer.tk:6969","udp://tracker.leechers-paradise.org:6969","udp://zer0day.ch:1337"],"urlList":[]}}